# xmcd CD database file
#
# Track frame offsets:
#	150
#	107874
#	135576
#	172086
#	183111
#	214726
#	227456
#	254125
#	265043
#	287888
#	300448
#	314006
#
# Disc length: 4263 seconds
#
# Revision: 0
# Processed by: cddbd v1.5.1PL2 Copyright (c) Steve Scherf et al.
# Submitted via: CDex 1.51
#
DISCID=af10a50c
DTITLE=Front Wing - あきばこ [私立アキハバラ学園ファンディスク]
DYEAR=2003
DGENRE=Game
TTITLE0=data
TTITLE1=えろいドラマ01
TTITLE2=えろいドラマ02
TTITLE3=えろいドラマ03
TTITLE4=えろいドラマ04
TTITLE5=えろいドラマ05
TTITLE6=えろいドラマ06
TTITLE7=えろいドラマ07
TTITLE8=えろいドラマ08
TTITLE9=えろいドラマ09
TTITLE10=えろいドラマ10
TTITLE11=えろいドラマ11
EXTD=YEAR: 2003
EXTT0=
EXTT1=
EXTT2=
EXTT3=
EXTT4=
EXTT5=
EXTT6=
EXTT7=
EXTT8=
EXTT9=
EXTT10=
EXTT11=
PLAYORDER=
